<?xml version="1.0" encoding="utf-8"?>
<!-- Generator: Adobe Illustrator 24.0.1, SVG Export Plug-In . SVG Version: 6.00 Build 0)  -->
<svg version="1.1" id="Layer_1" xmlns="http://www.w3.org/2000/svg" xmlns:xlink="http://www.w3.org/1999/xlink" x="0px" y="0px"
	 viewBox="0 0 527 502" style="enable-background:new 0 0 527 502;" xml:space="preserve">
<style type="text/css">
	.st0{fill:#707070;}
</style>
<path class="st0" d="M190.3,402c0,2-2.3,3.6-5.2,3.6c-3.3,0.3-5.6-1.3-5.6-3.6c0-2,2.3-3.6,5.2-3.6
	C187.7,398.1,190.3,399.7,190.3,402z M159.2,397.5c-0.7,2,1.3,4.3,4.3,4.9c2.6,1,5.6,0,6.2-2s-1.3-4.3-4.3-5.2
	C162.8,394.5,159.9,395.5,159.2,397.5L159.2,397.5z M203.4,395.8c-2.9,0.7-4.9,2.6-4.6,4.9c0.3,2,2.9,3.3,5.9,2.6
	c2.9-0.7,4.9-2.6,4.6-4.6C209,396.8,206.3,395.5,203.4,395.8z M269.2,12.6c-138.7,0-244.8,105.3-244.8,244
	c0,110.9,69.8,205.8,169.5,239.2c12.8,2.3,17.3-5.6,17.3-12.1c0-6.2-0.3-40.4-0.3-61.4c0,0-70,15-84.7-29.8c0,0-11.4-29.1-27.8-36.6
	c0,0-22.9-15.7,1.6-15.4c0,0,24.9,2,38.6,25.8c21.9,38.6,58.6,27.5,72.9,20.9c2.3-16,8.8-27.1,16-33.7
	c-55.9-6.2-112.3-14.3-112.3-110.5c0-27.5,7.6-41.3,23.6-58.9c-2.6-6.5-11.1-33.3,2.6-67.9c20.9-6.5,69,27,69,27
	c20-5.6,41.5-8.5,62.8-8.5s42.8,2.9,62.8,8.5c0,0,48.1-33.6,69-27c13.7,34.7,5.2,61.4,2.6,67.9c16,17.7,25.8,31.5,25.8,58.9
	c0,96.5-58.9,104.2-114.8,110.5c9.2,7.9,17,22.9,17,46.4c0,33.7-0.3,75.4-0.3,83.6c0,6.5,4.6,14.4,17.3,12.1
	c100-33.2,167.8-128.1,167.8-239C520.4,117.9,407.9,12.6,269.2,12.6z M121.6,357.5c-1.3,1-1,3.3,0.7,5.2c1.6,1.6,3.9,2.3,5.2,1
	c1.3-1,1-3.3-0.7-5.2C125.2,356.9,122.9,356.2,121.6,357.5z M110.8,349.4c-0.7,1.3,0.3,2.9,2.3,3.9c1.6,1,3.6,0.7,4.3-0.7
	c0.7-1.3-0.3-2.9-2.3-3.9C113.1,348.1,111.5,348.4,110.8,349.4z M143.2,385c-1.6,1.3-1,4.3,1.3,6.2c2.3,2.3,5.2,2.6,6.5,1
	c1.3-1.3,0.7-4.3-1.3-6.2C147.5,383.7,144.5,383.4,143.2,385z M131.8,370.3c-1.6,1-1.6,3.6,0,5.9s4.3,3.3,5.6,2.3
	c1.6-1.3,1.6-3.9,0-6.2C136,370,133.4,369,131.8,370.3L131.8,370.3z"/>
</svg>
