<?xml version="1.0" encoding="utf-8"?>
<!-- Generator: Adobe Illustrator 24.0.1, SVG Export Plug-In . SVG Version: 6.00 Build 0)  -->
<svg version="1.1" id="Layer_1" xmlns="http://www.w3.org/2000/svg" xmlns:xlink="http://www.w3.org/1999/xlink" x="0px" y="0px"
	 viewBox="0 0 150.97 83.45" style="enable-background:new 0 0 150.97 83.45;" xml:space="preserve">
<style type="text/css">
	.st0{fill:#0094FF;}
	.st1{fill:#0037BC;}
	.st2{fill:#FF4C1C;}
	.st3{fill:#25C54C;}
	.st4{fill:#FFD660;}
	.st5{fill:#00BCC7;}
	.st6{fill:#FA3183;}
	.st7{fill:#FBD0A8;}
	.st8{fill:#FFD0CD;}
</style>
<g>
	<g>
		<g>
			<path class="st0" d="M12.5,13.77c-4.98,0-9.34,3.34-10.63,8.15C0.59,26.74,2.69,31.82,7,34.31s9.76,1.77,13.28-1.75l-4.28-4.28
				c-1.42,1.42-3.55,1.84-5.4,1.07c-1.85-0.77-3.06-2.57-3.06-4.58s1.21-3.81,3.06-4.58c1.85-0.77,3.98-0.34,5.4,1.07L20.28,17
				C18.22,14.93,15.42,13.77,12.5,13.77"/>
		</g>
		<g>
			<path class="st1" d="M32.55,13.83c-4.45,0-8.46,2.68-10.17,6.79c-1.7,4.11-0.76,8.84,2.38,11.99S32.65,36.7,36.76,35
				s6.79-5.72,6.79-10.17C43.55,18.76,38.63,13.84,32.55,13.83 M32.55,29.79c-2,0-3.81-1.21-4.58-3.06
				c-0.77-1.85-0.34-3.98,1.07-5.4c1.42-1.42,3.55-1.84,5.4-1.07c1.85,0.77,3.06,2.57,3.06,4.58
				C37.51,27.57,35.29,29.79,32.55,29.79"/>
		</g>
		<g>
			<polyline class="st2" points="53.1,0.9 47.05,0.9 47.05,35.88 53.1,35.88 53.1,0.9 			"/>
		</g>
		<g>
			<path class="st1" d="M67.6,13.83c-4.45,0-8.46,2.68-10.17,6.79c-1.7,4.11-0.76,8.84,2.38,11.99c3.15,3.15,7.88,4.09,11.99,2.38
				s6.79-5.72,6.79-10.17C78.6,18.76,73.68,13.84,67.6,13.83 M67.6,29.79c-2,0-3.81-1.21-4.58-3.06c-0.77-1.85-0.34-3.98,1.07-5.4
				c1.42-1.42,3.55-1.84,5.4-1.07c1.85,0.77,3.06,2.57,3.06,4.58C72.55,27.57,70.34,29.79,67.6,29.79"/>
		</g>
		<g>
			<path class="st3" d="M88.15,13.83H82.1v22.02V22.02c0-3.7,2.48-6.94,6.05-7.91L88.15,13.83"/>
			<path class="st2" d="M90.29,13.83c-0.72,0-1.44,0.09-2.14,0.28v7.91c0-0.87,0.52-1.65,1.32-1.98c0.8-0.33,1.72-0.15,2.34,0.47
				l4.27-4.28C94.55,14.69,92.46,13.82,90.29,13.83"/>
			<path class="st4" d="M88.15,14.11c-3.57,0.97-6.05,4.21-6.05,7.91v13.83h6.05L88.15,14.11"/>
		</g>
	</g>
	<g>
		<g>
			<polyline class="st2" points="98.06,43.96 92.01,43.96 92.01,65.94 98.06,65.94 98.06,43.96 			"/>
			<polyline class="st5" points="98.06,31.06 92.01,31.06 92.01,37.44 98.06,37.44 98.06,31.06 			"/>
		</g>
		<g>
			<path class="st3" d="M108.1,43.92h-6.05v22.02V53.59c0-3.94,2.4-7.48,6.05-8.96L108.1,43.92"/>
			<path class="st6" d="M111.73,43.92c-1.24,0-2.47,0.24-3.62,0.7v8.96c0-2,1.62-3.62,3.62-3.62c2,0,3.62,1.62,3.62,3.62v12.35h6.05
				V53.59C121.39,48.25,117.06,43.93,111.73,43.92"/>
			<path class="st7" d="M108.1,44.62c-3.65,1.48-6.04,5.02-6.05,8.96v12.35h6.05L108.1,44.62"/>
		</g>
		<g>
			<path class="st5" d="M135.91,43.93c-4.2,0-8.04,2.39-9.89,6.17s-1.38,8.27,1.2,11.59c1.28-1.16,2.95-1.8,4.68-1.8h4
				c-2.74,0-4.96-2.22-4.96-4.96c0-2.74,2.22-4.96,4.96-4.96c2.74,0,4.96,2.22,4.96,4.96l0,0v-5.09c0-1.42,0.51-2.79,1.44-3.87
				C140.44,44.65,138.2,43.93,135.91,43.93"/>
			<path class="st2" d="M149.81,43.93h-3.02c-1.57,0-3.08,0.62-4.18,1.73c-0.1,0.1-0.2,0.21-0.3,0.32c2.89,2.06,4.61,5.4,4.61,8.95
				l0,0v-4.96h2.89V43.93 M146.46,58.08c-1.39,4.66-5.68,7.86-10.55,7.86l0,0C140.78,65.93,145.06,62.74,146.46,58.08 M127.23,61.69
				c-2.16,1.94-2.9,5-1.86,7.71c1.04,2.71,3.64,4.49,6.54,4.49h8.01c0.53,0,0.95,0.43,0.95,0.95c0,0.53-0.43,0.95-0.95,0.95h-7.03
				v6.05h7.03c3.87,0,7-3.13,7-7c0-3.87-3.13-7-7-7h-8.01c-0.53,0-0.95-0.43-0.95-0.95c0-0.53,0.43-0.95,0.95-0.95h4
				C132.52,65.94,129.31,64.37,127.23,61.69"/>
			<path class="st8" d="M142.3,45.99c-0.93,1.07-1.44,2.45-1.44,3.87v5.08c0,2.74-2.22,4.95-4.96,4.96h-4c-1.73,0-3.4,0.64-4.68,1.8
				c2.08,2.68,5.29,4.25,8.68,4.25l0,0c4.78,0,9.02-3.09,10.48-7.64S146.2,48.77,142.3,45.99"/>
		</g>
	</g>
</g>
</svg>
